<svg height="512" viewBox="0 0 58 58" width="512" xmlns="http://www.w3.org/2000/svg"><g id="Page-1" fill="none" fill-rule="evenodd"><g id="033---Running-Schedule" fill-rule="nonzero" transform="translate(0 -1)"><path id="Shape" d="m26 25.76v-12.26c0-1.3807119 1.1192881-2.5 2.5-2.5s2.5 1.1192881 2.5 2.5v12.26z" fill="#95a5a5"/><path id="Shape" d="m24.76 32h-8.26c-1.3807119 0-2.5-1.1192881-2.5-2.5s1.1192881-2.5 2.5-2.5h8.26z" fill="#95a5a5"/><path id="Shape" d="m53.97 33.97c-1.3641235 1.3640396-3.5757297 1.3639942-4.9397973-.0001014-1.3640676-1.3640955-1.3640676-3.5757017 0-4.9397972 1.3640676-1.3640956 3.5756738-1.364141 4.9397973-.0001014.6575725.6537615 1.027315 1.5427429 1.027315 2.47s-.3697425 1.8162385-1.027315 2.47z" fill="#3b97d3"/><path id="Shape" d="m58 45.07c-.0018533 1.2396949-.929072 2.2828159-2.16 2.43l-3.4.39-2.44.28c-1.3392401.1572229-2.5524371-.8007999-2.71-2.14l-.44-3.76c-.0289974-.2321017-.1883666-.4270862-.4100553-.5016929-.2216887-.0746068-.4665186-.0156509-.6299447.1516929l-5.09 5.09 4.34 4.33c.9498316.961671.9498316 2.508329 0 3.47l-3.47 3.47c-.958214.9609755-2.5140245.963214-3.475.005s-.963214-2.5140245-.005-3.475l1.3-1.3c.1192385-.1132764.1867507-.2705331.1867507-.435s-.0675122-.3217236-.1867507-.435l-1.73-1.73c-.1132764-.1192385-.2705331-.1867507-.435-.1867507s-.3217236.0675122-.435.1867507l-5.63 5.63c-.6180695.6198558-1.5198783.86289-2.3657239.6375541-.8458457-.225336-1.5072239-.8848083-1.735-1.73-.2277762-.8451918.0126544-1.7476983.6307239-2.3675541l16.05-16.06c.2300983-.2404935.2300983-.6195065 0-.86l-1.74-1.74c-.2404935-.2300983-.6195065-.2300983-.86 0l-.44.44c-.9612653.9602756-2.5187347.9602756-3.48 0-.463156-.4561928-.7227375-1.0799093-.72-1.73-.0010463-.6526906.2580691-1.2788862.72-1.74l2.62-2.6c.4576985-.4609407 1.08042-.7201688 1.73-.7201688s1.2723015.2592281 1.73.7201688l7.21 7.2c.3916656.3895034.6386187.901049.7 1.45l.62 5.34c.0207581.1314394.1370768.2262176.27.22l3.14-.37c.6472851-.0777809 1.298917.1052003 1.8110946.5085636s.8427998.9939522.9189054 1.6414364c.0085004.0964193.0118385.1932242.01.29z" fill="#3b97d3"/><path id="Shape" d="m53.19 21.6-.05.01c-1.2368232.3958689-2.5707995-.2211494-3.07-1.42-3.658816-8.5027544-11.9696426-14.06429686-21.2251454-14.2037073-9.2555027-.13941043-17.7300619 5.1693032-21.64330445 13.5580039-3.91324254 8.3887007-2.53557346 18.2933775 3.51844985 25.2957034l2.37-2.37c.2723344-.2713955.6761479-.3626248 1.0387048-.2346635.3625568.1279612.6196462.4524503.6612952.8346635l.66 5.96.41 3.73c.0318964.300388-.0737025.5990966-.2873029.8126971-.2136005.2136004-.5123091.3191993-.8126971.2873029l-1.24-.14-8.41-1.38c-.38279496-.0614266-.69559143-.3385752-.8026642-.7111884-.10707277-.3726133.0108748-.7735389.3026642-1.0288116l2.57-2.22c-7.48027774-8.4420423-9.27538239-20.5024789-4.57795841-30.7570799 4.69742397-10.25460105 15.00270211-16.77209862 26.28099401-16.62122204 11.278292.15087659 21.4055364 6.94171249 25.8269644 17.31830194.2625242.6345786.2476066 1.3500458-.0411399 1.9731303-.2887465.6230846-.8249887 1.0969622-1.4788601 1.3068697z" fill="#ff5364"/><path id="Shape" d="m33 29.5c.0010619 1.9284924-1.2268198 3.6432716-3.0528733 4.2634432-1.8260535.6201715-3.8442754.0078469-5.0178906-1.5224183-1.1736151-1.5302651-1.2416828-3.6382329-.1692361-5.2410249.323968-.4939596.7460404-.916032 1.24-1.24 1.380349-.9222846 3.1563644-1.0096751 4.6205897-.2273604 1.4642254.7823147 2.3787989 2.3072484 2.3794103 3.9673604z" fill="#bdc3c7"/><g fill="#95a5a5"><path id="Shape" d="m35 40h-12c-.5522847 0-1-.4477153-1-1s.4477153-1 1-1h12c.5522847 0 1 .4477153 1 1s-.4477153 1-1 1z"/><path id="Shape" d="m30 45h-11c-.5522847 0-1-.4477153-1-1s.4477153-1 1-1h11c.5522847 0 1 .4477153 1 1s-.4477153 1-1 1z"/><path id="Shape" d="m25 50h-5c-.5522847 0-1-.4477153-1-1s.4477153-1 1-1h5c.5522847 0 1 .4477153 1 1s-.4477153 1-1 1z"/></g></g></g></svg>